<svg id="Layer_1" data-name="Layer 1" xmlns="http://www.w3.org/2000/svg" viewBox="0 0 612 612"><defs><style>.cls-1{fill:#20262b;}.cls-2{fill:#0f81ba;}.cls-3{fill:#efbc1c;}.cls-4{fill:#056f9f;}.cls-5{fill:#96c9e0;}</style></defs><path class="cls-1" d="M19.85,580.45c6.4-6.83,12.66-13.8,19.23-20.46,13.17-13.36,26.51-26.56,40.49-40.53-3.79-3.52-7.29-6.63-10.63-9.91-10.08-9.88-14.22-21.65-10-35.41C63.11,460.7,72.53,453,86.38,450.41a5.33,5.33,0,0,0,3.31-3.47c3.18-15.75,12.46-25.15,28.24-28.36a5.8,5.8,0,0,0,3.6-3.78c2.38-11.67,8.55-20.32,19.48-25.26,2.69-1.21,3.59-2.6,3-5.57-2.81-13.42,1.15-25,10.63-34.56q68.51-68.78,137.28-137.27c11.57-11.51,25.48-14.74,40.92-8.82,3.53,1.35,5.08-.19,7.14-2.25Q397.18,143.76,454.4,86.45c4.71-4.74,9.67-7,16.44-6.77,18.2.64,18.25.47,30.58-13.24A9.8,9.8,0,0,0,503.7,61c.43-5.24.41-10.52.52-15.78.23-10.73,2.89-13.83,13.55-15.79q30.75-5.68,61.5-11.43a17.39,17.39,0,0,0,3-1.14h7.91c6.73,3.84,8.72,9.19,7.12,17C593,55,589.39,76.35,585.46,97.6c-1.91,10.31-5.08,13-15.53,13.16l-1.7,0c-18.58.34-18.64.29-31.09,14.26a8.15,8.15,0,0,0-2,5.94c3.07,16.82-4.41,28.24-16.29,39.66C483.31,204.8,448.92,240.14,414,274.91c-2.63,2.62-3.09,4.54-1.8,8.18,4.68,13.19,2.61,25.53-6.22,36.55a68.37,68.37,0,0,1-5,5.4q-66.63,66.68-133.27,133.34c-10.39,10.43-22.3,15.6-37.2,12.74a5.47,5.47,0,0,0-4.6,2.36c-5.34,11.23-14,17.75-26.21,20a5.28,5.28,0,0,0-3.29,3.48c-3.15,15.8-12.57,25.07-28.3,28.32a5.86,5.86,0,0,0-3.58,3.83c-2.67,13.06-9.93,22.23-22.58,26.53-13.14,4.48-24.87,1.37-34.86-8.07-3.94-3.72-7.41-7.94-11.91-12.8-3.93,4.3-7,7.86-10.24,11.16Q63.67,567.41,42.26,588.7c-9,9-15,8.59-22.41-1.47ZM188.28,347c1.43,1.62,2.13,2.49,2.91,3.27,9.7,9.73,19.51,19.35,29.09,29.2,5.22,5.37,5.34,12.06.78,16.62s-11,4.46-16.61-.69c-3.59-3.32-7-6.87-10.41-10.34q-10.65-10.75-21.22-21.48c-9,8-9.53,16.59-1.74,24.44q27,27.26,54.28,54.33c9.5,9.48,16.91,9.43,26.52-.18q54.72-54.69,109.4-109.41c1.27-1.27,2.42-2.67,3.72-4.11-1.63-1.7-2.89-3.07-4.21-4.39-8.51-8.52-17.06-17-25.54-25.57a28.39,28.39,0,0,1-4.3-5.19,10.77,10.77,0,0,1,2.65-14.19c4.69-3.71,10.37-3.53,15.32,1.24,9.48,9.14,18.68,18.59,28,27.89,1.4,1.4,2.89,2.71,4.25,4,13.15-10,14.14-20.6,1.78-32.18-17.16-16.08-33.41-33.14-50-49.77-10.16-10.16-17.32-10.2-27.38-.14q-51.12,51.11-102.24,102.2C198.5,337.35,193.54,342,188.28,347ZM355,219.42l40.56,40.63,93.64-93.65-40.28-40.9Zm152.48-70.16c4.15-2.23,5.66-5.94,5.14-11-.43-4.29-.87-8.78-.05-12.94.85-4.37,2.31-9.18,5.07-12.49a154.2,154.2,0,0,1,18.71-18.76A25.55,25.55,0,0,1,548.19,89c5.08-.86,10.42-.21,15.85-.21C567,73,569.72,58.12,572.65,42.32l-45.73,8.51c-.13,1.62-.25,2.72-.3,3.82-1.16,23,2.24,16.29-14.94,33.48-17,17-11.13,14.61-35.2,14.24-5.05-.08-8.6,1.25-10.7,5.17C479.78,121.55,493.57,135.37,507.44,149.26ZM142.9,420.48c2,3.19,3.65,6.82,6.24,9.49,11.8,12.14,23.87,24,35.88,36a24.3,24.3,0,0,0,4.36,3.54,10.94,10.94,0,0,0,13.48-1.7c3.47-3.83,4.52-8.28,1.89-13a24.88,24.88,0,0,0-4.24-5.22q-17.5-17.62-35.14-35.12a24.27,24.27,0,0,0-5.23-4.23C152.84,406.29,144.13,411.52,142.9,420.48ZM161,502.94c6.52,0,10.12-2.13,12.09-6.46,2.42-5.35.55-9.91-3.32-13.8-12.48-12.53-24.94-25.09-37.54-37.5-5.57-5.48-12.42-5.76-17.07-1.12s-4.27,11.57,1.16,17.07c12.43,12.59,24.92,25.12,37.59,37.46C156.24,500.81,159.51,502,161,502.94Zm-67.89-30c-6.66-.05-10.17,2.17-12.13,6.5-2.19,4.87-.86,9.34,2.69,12.94q19.23,19.48,38.72,38.71c5.31,5.2,12.13,5.19,16.63.58s4.22-11.39-.95-16.64q-19-19.32-38.35-38.27C97.62,474.64,94.44,473.62,93.15,472.91Z"/><path class="cls-2" d="M188.28,347c5.26-5.07,10.22-9.68,15-14.46q51.15-51.07,102.24-102.2c10.06-10.06,17.22-10,27.38.14,16.64,16.63,32.89,33.69,50,49.77,12.36,11.58,11.37,22.16-1.78,32.18-1.36-1.28-2.85-2.59-4.25-4-9.33-9.3-18.53-18.75-28-27.89-4.95-4.77-10.63-4.95-15.32-1.24A10.77,10.77,0,0,0,331,293.53a28.39,28.39,0,0,0,4.3,5.19c8.48,8.56,17,17,25.54,25.57,1.32,1.32,2.58,2.69,4.21,4.39-1.3,1.44-2.45,2.84-3.72,4.11q-54.67,54.72-109.4,109.41c-9.61,9.61-17,9.66-26.52.18q-27.17-27.13-54.28-54.33c-7.79-7.85-7.29-16.4,1.74-24.44q10.56,10.69,21.22,21.48c3.44,3.47,6.82,7,10.41,10.34,5.58,5.15,12,5.34,16.61.69s4.44-11.25-.78-16.62c-9.58-9.85-19.39-19.47-29.09-29.2C190.41,349.52,189.71,348.65,188.28,347Zm129.14-93.22a11.12,11.12,0,0,0-11.17,11c0,6.16,5.53,11.65,11.55,11.47a11.26,11.26,0,0,0-.38-22.51ZM236.35,422.48a11.25,11.25,0,0,0,11.14-11.11c0-6.05-5.73-11.6-11.69-11.38A11.41,11.41,0,0,0,225,411.53,11.29,11.29,0,0,0,236.35,422.48Z"/><path class="cls-3" d="M355,219.42l93.92-93.92,40.28,40.9-93.64,93.65Z"/><path class="cls-3" d="M507.44,149.26c-13.87-13.89-27.66-27.71-41.66-41.72,2.1-3.92,5.65-5.25,10.7-5.17,24.07.37,18.22,2.74,35.2-14.24,17.18-17.19,13.78-10.48,14.94-33.48,0-1.1.17-2.2.3-3.82l45.73-8.51C569.72,58.12,567,73,564,88.8c-5.43,0-10.77-.65-15.85.21a25.55,25.55,0,0,0-11.88,5.08,154.2,154.2,0,0,0-18.71,18.76c-2.76,3.31-4.22,8.12-5.07,12.49-.82,4.16-.38,8.65.05,12.94C513.1,143.32,511.59,147,507.44,149.26Z"/><path class="cls-4" d="M142.9,420.48c1.23-9,9.94-14.19,17.24-10.26a24.27,24.27,0,0,1,5.23,4.23Q183,432,200.51,449.57a24.88,24.88,0,0,1,4.24,5.22c2.63,4.71,1.58,9.16-1.89,13a10.94,10.94,0,0,1-13.48,1.7,24.3,24.3,0,0,1-4.36-3.54c-12-11.94-24.08-23.83-35.88-36C146.55,427.3,145,423.67,142.9,420.48Z"/><path class="cls-4" d="M161,502.94c-1.53-.91-4.8-2.13-7.09-4.35-12.67-12.34-25.16-24.87-37.59-37.46-5.43-5.5-5.74-12.49-1.16-17.07s11.5-4.36,17.07,1.12c12.6,12.41,25.06,25,37.54,37.5,3.87,3.89,5.74,8.45,3.32,13.8C171.16,500.81,167.56,502.93,161,502.94Z"/><path class="cls-4" d="M93.15,472.91c1.29.71,4.47,1.73,6.61,3.82q19.39,18.91,38.35,38.27c5.17,5.25,5.37,12.13.95,16.64s-11.32,4.62-16.63-.58q-19.55-19.17-38.72-38.71c-3.55-3.6-4.88-8.07-2.69-12.94C83,475.08,86.49,472.86,93.15,472.91Z"/><path class="cls-5" d="M317.42,253.81a11.26,11.26,0,0,1,.38,22.51c-6,.18-11.55-5.31-11.55-11.47A11.12,11.12,0,0,1,317.42,253.81Z"/><path class="cls-5" d="M236.35,422.48a11.29,11.29,0,0,1-11.33-11A11.41,11.41,0,0,1,235.8,400c6-.22,11.66,5.33,11.69,11.38A11.25,11.25,0,0,1,236.35,422.48Z"/></svg>