<svg id="Layer_1" data-name="Layer 1" xmlns="http://www.w3.org/2000/svg" viewBox="0 0 96.08 53.25"><defs><style>.cls-1{stroke:#231f20;stroke-miterlimit:10;}</style></defs><g id="_3YFKgE" data-name="3YFKgE"><path class="cls-1" d="M42.05,49c-1.33,3.36-1.87,3.71-5.29,3.71s-6.74.05-10.11,0c-3,0-4.1-1.1-4.06-4.1,0-1.59-.52-2.14-2.05-2.53C15.09,44.71,9.79,42.91,5.2,39.48,2.07,37.14.27,34.24.52,30.12a97.1,97.1,0,0,0,0-10.79,9.63,9.63,0,0,1,4-8.36c4.63-3.8,10.11-5.81,15.81-7.13C40.5-.83,60.66-.85,80.58,5.34a44.63,44.63,0,0,1,10,4.93,10,10,0,0,1,5,9.65,103.32,103.32,0,0,0,0,10.56,9.71,9.71,0,0,1-3.79,8.23c-4.83,4.06-10.65,6-16.62,7.47-3.26.81-6.62,1.22-9.9,1.94a3.7,3.7,0,0,0-2,1.36,4.1,4.1,0,0,1-6.52.59,3,3,0,0,0-1.75-1C50.59,49,46.26,49,42.05,49ZM22.14,30.72c1.34-3.46,2.39-4,5.49-3.6,2.9.4,5.79.83,8.7,1,3.34.18,6.34.53,6,5H53.68a2.66,2.66,0,0,0,2.81-1.63c1-2.11,4.35-2.7,5.72-.87s2.61,1.59,4.21,1.24c3.94-.87,7.93-1.58,11.79-2.73,3.24-1,6.33-2.44,9.8-3.82C71.18,13.8,23.86,14.11,8,25.36ZM3.05,19.41c5.69-5,12.27-7.35,19.2-8.73A139.55,139.55,0,0,1,38,8.35,113.08,113.08,0,0,1,75.24,11c6.39,1.6,12.52,3.82,17.72,8.44a4.93,4.93,0,0,0-1.75-5.5,44.32,44.32,0,0,0-8.69-5.4c-7.7-3.31-15.93-4.57-24.25-5.17-13.46-1-26.8-.41-39.85,3.37C13.67,8.07,9,9.83,5.32,13.3,3.68,14.83,2.46,16.59,3.05,19.41Zm1.11,1.87c1.74,2.26,1.7,2.18,3.65,1.2a65.1,65.1,0,0,1,7.13-3.22,89.3,89.3,0,0,1,26.62-4.67c16.75-.65,33.18.54,48.55,8.75l1.58-1.65a12.74,12.74,0,0,0-1-1.17,16.09,16.09,0,0,0-1.56-1.28c-5.24-3.7-11.25-5.47-17.42-6.76a120.83,120.83,0,0,0-40.19-1.25c-7.21.9-14.32,2.43-20.84,5.8A70.16,70.16,0,0,0,4.16,21.28ZM30.32,41.66v4.07a113.36,113.36,0,0,0,25.48.88v-11l-25.41-.95v4.7a17.73,17.73,0,0,1,2.86.05c.47.08.87.58,1.3.9-.42.43-.78,1.13-1.26,1.24A14.49,14.49,0,0,1,30.32,41.66Zm-27.48-18a57.69,57.69,0,0,0,.08,7.4,9,9,0,0,0,1.85,4.81c4.73,4.94,11.08,6.64,17.77,8.34,0-3.27-.09-6.22,0-9.15.08-1.73-.49-2.41-2.21-2.84C14.12,30.67,8.11,28.51,2.84,23.67ZM76.28,43.53c5.18-1.51,10.07-3.1,14-6.63a8.68,8.68,0,0,0,2.81-4.4c.46-2.72.12-5.58.12-8.82-5.4,5.07-11.87,7-18.51,8.93C80.8,37.41,80.8,37.41,76.28,43.53ZM63.69,34.61v11.1a12.9,12.9,0,0,0,12.76-6.29c.37-.58.63-1.87.32-2.15-2.17-2-4.51-3.78-7.66-3.56A53.21,53.21,0,0,0,63.69,34.61Zm-24-1.68.44-.89c-.66-.49-1.27-1.32-2-1.42-3.85-.54-7.71-.95-11.58-1.26-.53,0-1.6.73-1.63,1.16-.14,2.89-.07,5.79-.07,8.73h3.06v-7.5ZM61.3,40.57c0-2.25.11-4.51-.07-6.74,0-.67-.91-1.27-1.4-1.9-.54.64-1.53,1.27-1.55,1.92-.14,4.42-.06,8.85-.08,13.27,0,1.12.26,2.16,1.54,1.85a2.62,2.62,0,0,0,1.49-1.89C61.42,44.93,61.3,42.74,61.3,40.57ZM39.37,49.69l-.22-.6c-3-.35-5.91-.81-8.88-1-1.93-.13-2.63-.91-2.41-2.8a27.93,27.93,0,0,0,0-3.42H24.84c0,2.41,0,4.65,0,6.89,0,1.3.63,1.67,1.8,1.67,3.67,0,7.33,0,11,0A5.63,5.63,0,0,0,39.37,49.69Z"/><path class="cls-1" d="M37.85,41.67a2,2,0,0,1-1.1-.09,2.09,2.09,0,0,1-1-1.24c0-.2.61-.79,1-.86a5.86,5.86,0,0,1,2.43,0,7.16,7.16,0,0,1,1.83,1.08c-.63.38-1.24.8-1.89,1.12C38.93,41.77,38.58,41.67,37.85,41.67Z"/><path class="cls-1" d="M47.22,41.65c-.52,0-1.13.17-1.53,0s-.81-.85-1.2-1.29a4.44,4.44,0,0,1,1.33-.86,5.26,5.26,0,0,1,2.2,0,7.13,7.13,0,0,1,1.72.91,17,17,0,0,1-1.65,1.29c-.21.14-.58,0-.87,0Z"/></g></svg>