<svg id="Layer_1" data-name="Layer 1" xmlns="http://www.w3.org/2000/svg" viewBox="0 0 100 100"><g id="PSKbKm.tif"><path d="M70.51,0h4.1c.11.06.21.16.33.17A10.65,10.65,0,0,1,81.1,3.44Q88.9,11.3,96.75,19.1a10.44,10.44,0,0,1,3,5.27c.09.41.2.81.3,1.22V29.3c-.06.25-.13.49-.19.74-.45,1.83-.77,3.69-1.35,5.47a68.77,68.77,0,0,1-9.67,18.28,142.41,142.41,0,0,1-38.57,37.4,59.8,59.8,0,0,1-15.54,7.55c-1.76.52-3.59.85-5.38,1.26H25.59a1.09,1.09,0,0,0-.35-.16,10.57,10.57,0,0,1-6.34-3.3C13.73,91.33,8.51,86.17,3.35,81a11.75,11.75,0,0,1-2.13-2.88A24.55,24.55,0,0,1,0,74.41v-3.9c.11-.5.23-1,.32-1.51A46,46,0,0,1,5.38,55.57a111.18,111.18,0,0,1,14-19.92c1.86-2.16,3.79-4.26,5.6-6.28L45.65,50.06c-2.64,3.08-5.43,6.16-8,9.41s-5,6.66-7.5,10l.23.16c9.89-4.59,35.9-30.65,39.27-39.4A137,137,0,0,0,50.16,45.7L29.43,25a.55.55,0,0,1,.12-.15A138.63,138.63,0,0,1,49.2,9.16,65.19,65.19,0,0,1,65.14,1.29C66.9.75,68.72.42,70.51,0ZM25.2,37.86c-.13.16-.32.38-.5.61-3,3.89-6.22,7.69-9.09,11.7A60.58,60.58,0,0,0,7.13,66.23,17,17,0,0,0,6,74a3.54,3.54,0,0,0,2.84,3.31,7.93,7.93,0,0,0,2.12.24,24.31,24.31,0,0,0,8.65-2.15,2.23,2.23,0,0,0,1.07-1A105.09,105.09,0,0,1,32.92,55.85c1.54-1.92,3.15-3.79,4.66-5.6Zm25.09-.29c1.52-1.28,3.07-2.61,4.65-3.91a100.13,100.13,0,0,1,17.9-12.1,5.73,5.73,0,0,0,3.26-3.73,23.34,23.34,0,0,0,1.41-7.42c-.09-2.5-1-3.84-3-4.29A9.6,9.6,0,0,0,72,5.94,25.42,25.42,0,0,0,63.7,8.06,80.72,80.72,0,0,0,45.84,18.72c-2.73,2.09-5.37,4.3-8,6.43Zm9.37,39.3C53,75.09,49,70.9,47.78,64.05c-.47.39-.84.71-1.22,1-4.12,3.07-8.13,6.29-12.37,9.18a59,59,0,0,1-16.66,8.12c-1.13.34-2.29.57-3.55.88.23.24.35.39.49.52,3,3,6,5.93,8.9,8.92A4.56,4.56,0,0,0,26.21,94c3,.37,5.87-.49,8.65-1.52,7.46-2.75,14-7.17,20.25-11.93C56.63,79.39,58.09,78.15,59.66,76.87ZM76.87,59.64l1.2-1.47c5.31-6.53,10.15-13.36,13.53-21.12a25.83,25.83,0,0,0,2.47-9.36A5.77,5.77,0,0,0,92.35,23c-2.81-2.71-5.54-5.51-8.29-8.28a3.73,3.73,0,0,1-.5-1l-.32.32c-3,13.1-10.83,23.51-19.17,33.67C70.89,49,75.09,52.91,76.87,59.64Zm-5.71,2.74a8.74,8.74,0,1,0-8.7,8.76A8.71,8.71,0,0,0,71.16,62.38Z"/><path d="M49.39,79.37l-3.85,3.84-3.88-3.89,3.87-3.83Z"/><path d="M37.14,83.46l-3.89,3.89-3.9-3.87,3.88-3.92Z"/><path d="M79.31,49.37,75.44,45.5l3.92-3.92,3.83,3.86Z"/><path d="M87.52,33,83.62,37l-3.91-3.91,3.92-3.92Z"/></g></svg>