<svg id="Layer_1" data-name="Layer 1" xmlns="http://www.w3.org/2000/svg" viewBox="0 0 92.39 95.15"><g id="HLcfUv.tif"><path d="M92.39,48v.93A9.79,9.79,0,0,1,89,55.19C83.89,60,78.9,65,73.86,69.86a2.14,2.14,0,0,0-.74,1.7c0,1.77,0,3.53,0,5.29a1.4,1.4,0,0,0,.76,1.43,4.65,4.65,0,0,1,2.42,4.3c0,2.35-.07,4.71,0,7a5.16,5.16,0,0,1-3.61,5.52H37.08a4.43,4.43,0,0,1-1.64-1.33.64.64,0,0,0-.88-.25L30.4,95.15h-2a3.53,3.53,0,0,1-2.08-2c-1.26-3.45-2.53-6.9-3.76-10.37a3,3,0,0,1,.67-3.19c.58-.6.4-.94,0-1.47C20.78,75,18.41,71.79,16,68.65a31.32,31.32,0,0,1-4.91-8.15Q5.74,45.88.42,31.23a6.41,6.41,0,0,1,6-8.77c.71,0,.71-.26.51-.78-.48-1.3-1-2.6-1.43-3.92a6.74,6.74,0,0,1-.11-4.54A6.2,6.2,0,0,1,11.21,9c.8,0,1-.28.76-1a5.47,5.47,0,0,1-.07-2.84,6.34,6.34,0,0,1,12-1.43c.38.81.58.83,1.25.24a5.63,5.63,0,0,1,4.65-1.36,6.56,6.56,0,0,1,5.51,4.74c1.78,5,3.6,9.94,5.41,14.91.08.22.07.53.44.72V14.49A23.06,23.06,0,0,1,41.26,12a6.37,6.37,0,0,1,8.53-5.43c.73.25.94.2,1-.64a6.4,6.4,0,0,1,8-5.7A6.29,6.29,0,0,1,63.6,5.94c.09.74.27.95,1,.63a5.35,5.35,0,0,1,3.19-.3,6.41,6.41,0,0,1,5.33,6.62q0,17,0,34c0,.34-.12.73.15,1a2.55,2.55,0,0,0,.88-.73c1.77-1.68,3.35-3.57,5.27-5.09a8,8,0,0,1,10,.15A8.37,8.37,0,0,1,92.39,48Zm-81-35.61a2.87,2.87,0,0,0-2.83,2.1,3.57,3.57,0,0,0,.26,2.43l6.92,19L18,42c.05.14.11.29.15.44.37,1.22,0,2.11-1,2.46s-1.8-.1-2.25-1.32c-1.11-3-2.19-6-3.28-9-.83-2.26-1.63-4.54-2.49-6.78a3,3,0,0,0-3-2,3.13,3.13,0,0,0-2.66,2.6,3.57,3.57,0,0,0,.31,2c2.64,7.26,5.31,14.52,7.91,21.79.33.93.75,1,1.63.86A18,18,0,0,1,24,54c4.73,1.87,7.76,5.47,10,9.9a74.18,74.18,0,0,1,3.55,9c.23.66.49.88,1.2.61q7-2.59,14.12-5.12c.76-.27.84-.63.57-1.31-.63-1.62-1.16-3.27-1.8-4.87a3.51,3.51,0,0,1,.11-3c1.91-4,3.76-8,5.62-12,1.45-3.11,3-6.2,4.32-9.34a4.51,4.51,0,0,0-8.08-4,18.18,18.18,0,0,0-.83,1.65C51.82,37.37,51,39.33,50,41.23a3.21,3.21,0,0,1-4.82,1.41,4.15,4.15,0,0,1-1.48-2.19q-4.8-13.2-9.61-26.4C33.33,12,32.6,9.86,31.78,7.79a2.86,2.86,0,0,0-3-1.85A2.94,2.94,0,0,0,26.28,8a4.21,4.21,0,0,0,.19,2.55q2.51,6.82,5,13.68c.93,2.56,1.87,5.11,2.76,7.68a1.64,1.64,0,0,1-.92,2.15,1.69,1.69,0,0,1-2.21-1c-.22-.48-.39-1-.57-1.47Q25.88,18.9,21.24,6.18a7.42,7.42,0,0,0-.66-1.43,2.93,2.93,0,0,0-3.34-1.19,2.88,2.88,0,0,0-2,2.72,4.88,4.88,0,0,0,.39,1.89Q19,17.49,22.4,26.81c1,2.59,1.88,5.17,2.83,7.76a2.39,2.39,0,0,1,.08,1.89,1.56,1.56,0,0,1-1.48.95,1.79,1.79,0,0,1-1.69-1.36L18.48,26c-1.38-3.81-2.75-7.62-4.15-11.42A2.93,2.93,0,0,0,11.38,12.39Zm58.33,17.9c0-5.69,0-11.39,0-17.08a4.84,4.84,0,0,0-.14-1.56,3,3,0,0,0-3.37-2,3.14,3.14,0,0,0-2.51,3.14c0,5.88,0,11.75,0,17.63a1.8,1.8,0,0,0,.26,1.06c1.91,2.81,1.83,5.69.41,8.7-3.11,6.56-6.16,13.16-9.23,19.75a1.57,1.57,0,0,0-.21,1.32c.65,1.73,1.27,3.48,1.9,5.23a1,1,0,0,0,.84.74,4.89,4.89,0,0,1,4,3.51c.71,2,1.47,4,2.18,6a1.1,1.1,0,0,0,1.22.87c1.17,0,2.35,0,3.52,0,.8,0,1.1-.25,1.09-1.07,0-2,0-4,0-5.94a3.08,3.08,0,0,1,1-2.46C72.16,66.81,73.55,65.4,75,64L87.4,51.91a4.55,4.55,0,0,0,1.48-3.84A4.63,4.63,0,0,0,81,45.21c-1.3,1.23-2.54,2.54-3.81,3.8A19.24,19.24,0,0,1,75,51.12,3.23,3.23,0,0,1,69.85,49a10.24,10.24,0,0,1-.14-1.75Q69.72,38.78,69.71,30.29ZM61,79a5.5,5.5,0,0,0-.2-.77C60,76.13,59.27,74,58.5,72,58,70.58,57.38,70.3,56,70.8Q41.33,76.13,26.7,81.45c-.72.26-.87.57-.6,1.29q1.51,4,2.91,8c.28.84.63,1,1.48.69,6.66-2.47,13.35-4.88,20-7.31l9.15-3.34A1.65,1.65,0,0,0,61,79ZM16.78,56c-.59.08-1.57.22-2.55.32-.79.08-.89.46-.65,1.14a26.65,26.65,0,0,0,3.74,7.22c3.09,4.09,6.2,8.18,9.28,12.28a1,1,0,0,0,1.34.41c2-.75,3.94-1.47,5.92-2.16.55-.19.74-.45.53-1A60.92,60.92,0,0,0,29.8,63.39C26.93,58.62,22.69,56.25,16.78,56ZM46.91,39.35l.26,0c1-2.24,2.06-4.49,3.14-6.71a3.79,3.79,0,0,0,.44-1.76c0-5.82,0-11.63,0-17.44A6,6,0,0,0,50.6,12a2.94,2.94,0,0,0-3-2.32,2.9,2.9,0,0,0-2.91,2.26,6.52,6.52,0,0,0-.17,1.65c0,5.66.12,11.32,0,17C44.44,33.77,46.13,36.41,46.91,39.35Zm-7.3,52.38v.17H70.49a5,5,0,0,0,.55,0c1.34-.1,1.83-.59,1.84-1.92,0-2.38,0-4.76,0-7.14,0-1.31-.53-1.85-1.87-1.88-2,0-4.08,0-6.12,0-.32,0-.66,0-.83.32a5.81,5.81,0,0,1-2.62,2.61c.92.08,1.78.08,2.65.08s1.73,0,2.6,0A3.26,3.26,0,0,1,70,87.23c0,.37,0,.75,0,1.12,0,1.3-.59,2-1.61,2.09s-1.77-.64-1.8-1.91c0-1-.45-1.17-1.31-1.17-4.27,0-8.54,0-12.8,0a4,4,0,0,0-1.37.18C47.28,89,43.44,90.34,39.61,91.73ZM54.17,17.11h0c0,3.46,0,6.93,0,10.39,0,1.3,0,1.3,1.2.94a6.79,6.79,0,0,1,3.84-.08c.93.27,1-.08,1-.87,0-3.68,0-7.36,0-11,0-3.31,0-6.62,0-9.93a2.93,2.93,0,0,0-3-3,2.87,2.87,0,0,0-3,3.06C54.14,10.06,54.17,13.59,54.17,17.11Z"/><path d="M54.17,74.68a3.33,3.33,0,0,1,2.65,1.41,6.83,6.83,0,0,1,1,2.57A1.5,1.5,0,0,1,57,80.35a1.57,1.57,0,0,1-1.83-.15,2.54,2.54,0,0,1-.47-.56c-.31-.42-.2-1.17-.74-1.32s-1.12.28-1.66.47L33,85.8a8,8,0,0,1-1.15.36,1.65,1.65,0,0,1-1.87-1,1.63,1.63,0,0,1,.67-2,5.64,5.64,0,0,1,1.1-.48l20.64-7.53A6.15,6.15,0,0,1,54.17,74.68Z"/></g></svg>