<svg id="Layer_1" data-name="Layer 1" xmlns="http://www.w3.org/2000/svg" viewBox="0 0 60.81 67.35"><g id="_76ONha" data-name="76ONha"><path d="M22.2,25.61a5.28,5.28,0,0,0,.65-5.72c-1.88,3-4.44,5.43-4.31,9.22a12.53,12.53,0,0,1-.35,3.17,8.43,8.43,0,0,0,1.11,6.13,24.57,24.57,0,0,0,5.59,6.67,3,3,0,0,1,1.26,2.45c0,4.73-1.71,9.37-7,11.52a18.23,18.23,0,0,1-3.8.73A34.05,34.05,0,0,0,6.43,62.4c-.88.42-1.4.52-1.42-.79a7.4,7.4,0,0,0-2.3-4.7c-.67,1.29-.08,2.71-.45,4-2.35-2.08-3-7-1.27-9.33a3.23,3.23,0,0,0,.47-3.81,5.11,5.11,0,0,1,1.38-6.43c3-2.44,3.54-5.37,2.73-9s0-6.53,2.89-8.84a7.1,7.1,0,0,0,2.42-5c.56-4.29,1.65-8.34,4.73-11.62a16.06,16.06,0,0,1,8.64-4.66c.36-.08.87-.07,1-.3C27-.28,29.51,0,31.88,0,40,.09,45.55,4.7,50.18,10.75a18.7,18.7,0,0,1,3.63,12.8,5.4,5.4,0,0,0,1.4,4.16,13,13,0,0,1,3.13,5.95A5.8,5.8,0,0,1,57,39a1.65,1.65,0,0,0,.12,2.71c1.6,1.5,1.64,2.32.55,4.24a5.83,5.83,0,0,0,1.41,6.84c1.78,1.34,1.84,3,1.57,4.8a14.09,14.09,0,0,1-2.47,5.68c-.38.57-.7.77-1.28.14s-1.06-2.24-2.68-1.5-1.89,2-2.09,3.5a2.62,2.62,0,0,1,0,.28c-.1.56.29,1.37-.37,1.62S50.47,67,50,66.54a4.45,4.45,0,0,1-1.35-4.67c.31-1.3,0-1.75-1.36-1.92-7.72-1-10.35-7.28-10.19-13.28a1.53,1.53,0,0,1,.6-1.19c3.75-3.12,5-7.45,5.72-12,.07-.46.12-.92.2-1.37.2-1.22.11-2.07-1.29-2.76-2.35-1.15-3.37-3.51-4-5.9a2.68,2.68,0,0,0-2.45-2.24,11.23,11.23,0,0,1-7.73-5.83c-.64-1.1-1-.78-1.5,0A3.69,3.69,0,0,0,26,18c.36,2.49.24,4.93-1.9,6.75A2.68,2.68,0,0,1,22.2,25.61Z"/></g></svg>