<svg id="Layer_1" data-name="Layer 1" xmlns="http://www.w3.org/2000/svg" viewBox="0 0 98.3 25.88"><g id="PTL8CE"><path d="M75.87,25.74a40,40,0,0,1-7.11-.5A29.6,29.6,0,0,1,58,21.09a29.48,29.48,0,0,1-7.52-6.74c-.85-1.09-1.61-1-2.33.15a15.78,15.78,0,0,1-4.53,4.64,35.94,35.94,0,0,1-11.15,5.5,33,33,0,0,1-6.19.95,42.6,42.6,0,0,1-6.08.26A32.07,32.07,0,0,1,8.4,23.29a14.2,14.2,0,0,1-6.8-6.73A13,13,0,0,1,0,11.32,7.77,7.77,0,0,1,3.26,4.13a4.59,4.59,0,0,1,6,.52A10,10,0,0,1,12,9.05c.18.49-.14.57-.5.5a3,3,0,0,1-1.14-.66,3.67,3.67,0,0,0-2.95-.84A2,2,0,0,0,5.68,9.83a6.4,6.4,0,0,0,1,4.84,5.23,5.23,0,0,0,3.92,2,12.89,12.89,0,0,0,8.26-1.47,15,15,0,0,0,3.46-3.15c1.77-2,3.69-3.77,5.62-5.59C29.53,5,31.1,3.59,32.74,2.23A10.13,10.13,0,0,1,38.65,0a14.77,14.77,0,0,1,9.07,2.27,3.07,3.07,0,0,0,3.15,0A18.93,18.93,0,0,1,56.44.46,13.15,13.15,0,0,1,67.07,3a50.62,50.62,0,0,1,9.82,9.85,10.45,10.45,0,0,0,7.91,4.17A12,12,0,0,0,90,16.5a4.92,4.92,0,0,0,3.47-3.71,5.85,5.85,0,0,0-.3-3.31c-.52-1.34-1.7-1.78-3.32-1.3a6.43,6.43,0,0,0-2.42,1.35c-.14.12-.31.26-.51.15s-.15-.36-.09-.51c1-2.66,2.54-4.85,5.4-5.72,1.62-.49,3.11.19,4.21,1.86a10.08,10.08,0,0,1,.95,10.07A23.32,23.32,0,0,1,93,21.94a6.25,6.25,0,0,1-2.28,1.33,30.76,30.76,0,0,1-8.87,2.24A47.48,47.48,0,0,1,75.87,25.74Z"/></g></svg>