<svg id="Layer_1" data-name="Layer 1" xmlns="http://www.w3.org/2000/svg" viewBox="0 0 81.48 89.11"><defs><style>.cls-1{fill:#fff;}</style></defs><g id="oIrb61.tif"><path d="M81.48,51.24c-.08,1-.16,2.06-.23,3.09a70.3,70.3,0,0,1-3.53,17.28,6.45,6.45,0,0,0-.3.91c-.31,1.93-1.67,2.88-3.32,3.55a31.63,31.63,0,0,1-6.84,1.8,109.7,109.7,0,0,1-22,1.21c-4.19-.16-8.39-.35-12.56-.76-7.58-.74-15.1-1.87-22.31-4.5a21.29,21.29,0,0,1-5-2.54,5.42,5.42,0,0,1-2.47-3.64c-.2-1.27-.49-2.52-.76-3.92,1,.39,1.87.73,2.73,1a81.77,81.77,0,0,0,15.75,4.15c3.53.6,7.07,1.12,10.62,1.52a149.67,149.67,0,0,0,16.79,1c3.18,0,6.37,0,9.55-.17a69.07,69.07,0,0,0,7.16-.8A10.61,10.61,0,0,0,72.3,65a20.56,20.56,0,0,0,2.61-8.6c.82-7.91-.9-15.42-3.77-22.71A64.69,64.69,0,0,0,55.38,10.38l-.77-.75-.21-.28c1,.05,1.93,0,2.8.15a16.33,16.33,0,0,1,6.43,2.7c4.7,2.93,8.06,7.1,10.91,11.74a45.77,45.77,0,0,1,6.2,17.45c.33,2.17.44,4.38.65,6.58,0,.25.06.51.09.76Z"/><path d="M0,75.49a2.41,2.41,0,0,1,.26-.71A7.16,7.16,0,0,1,1.4,73.46a1.08,1.08,0,0,1,1.52.11,24.84,24.84,0,0,0,7.9,4,74.24,74.24,0,0,0,13.56,3.11c4,.55,8,1.1,12.08,1.37,4.58.32,9.18.43,13.78.46,3.41,0,6.84-.17,10.25-.41a53.16,53.16,0,0,0,13.24-2.27A24.68,24.68,0,0,0,77.59,78a1.6,1.6,0,0,1,2.29.43,4.82,4.82,0,0,1,.61,1.84,10.41,10.41,0,0,1-.6,4.45,3.24,3.24,0,0,1-3.15,2.4c-4.17.34-8.33.94-12.51,1.26s-8.42.46-12.63.68c-.28,0-.55.06-.83.09h-7c-.26,0-.51-.07-.77-.09-2.48-.13-5-.24-7.44-.38a105.52,105.52,0,0,1-13-1.6A93.86,93.86,0,0,1,4,81.81a5.3,5.3,0,0,1-2.77-2.26A28,28,0,0,1,0,76.69Z"/><path class="cls-1" d="M0,76.69a28,28,0,0,0,1.23,2.86A5.3,5.3,0,0,0,4,81.81,93.86,93.86,0,0,0,22.51,87a105.52,105.52,0,0,0,13,1.6c2.48.14,5,.25,7.44.38.26,0,.51.06.77.09H0Z"/><path d="M62.12,23.65l-5.2,6q-8.34,9.56-16.69,19.12a5.74,5.74,0,0,0-1.08,5.91,8.84,8.84,0,0,0,3.54,4.45,16.88,16.88,0,0,0,10.84,3.5,5.8,5.8,0,0,0,5.79-4.66c.25-1.4.29-2.85.42-4.27.27-2.91.53-5.82.8-8.74s.5-5.66.76-8.49.53-5.75.79-8.62c.11-1.18.21-2.37.32-3.68.17.22.28.35.36.48a59.62,59.62,0,0,1,8.11,19.67,36.9,36.9,0,0,1,.66,12.22,16.43,16.43,0,0,1-2.46,7.33,7.63,7.63,0,0,1-5.28,3.42,84.35,84.35,0,0,1-17,.86c-4.42-.16-8.83-.36-13.23-.79a114.88,114.88,0,0,1-25.83-5.1C5.88,61.6,4.1,60.81,2.3,60.07a.68.68,0,0,1-.37-.49A35.09,35.09,0,0,1,3.86,46.93c0-.06.05-.11.12-.26.57,1.92,1,3.71,1.63,5.47a9.11,9.11,0,0,0,9.29,6.42,11.58,11.58,0,0,0,8.8-4.62,9.55,9.55,0,0,0,2-6.66,2.7,2.7,0,0,0-.77-1.54Q18.73,39.62,12.5,33.55c-.18-.18-.37-.35-.59-.55A64.57,64.57,0,0,1,25.34,21.11c-.11,1.16-.21,2.2-.31,3.24-.18,1.76-.4,3.51-.52,5.28A6.85,6.85,0,0,0,29,36.52a14.61,14.61,0,0,0,13.8-1.71A6.07,6.07,0,0,0,45,27.38C43.25,23,41.6,18.49,39.91,14c-.07-.18-.13-.37-.23-.66,2.12-.72,4.19-1.47,6.28-2.13,1.23-.39,2.49-.68,3.75-1a.92.92,0,0,1,.68.16A61.72,61.72,0,0,1,62.12,23.65Z"/><path d="M31,0c.68,1.8,1.37,3.59,2,5.39Q37.45,17,41.88,28.58c.64,1.68.43,2.46-1,3.54A11,11,0,0,1,35.63,34a10.45,10.45,0,0,1-5.28-.56c-2-.8-2.71-2-2.45-4.19.3-2.57.52-5.15.78-7.72.3-3,.61-6.06.91-9.08.25-2.54.51-5.07.76-7.6L30.83,0Z"/><path d="M2,27.9l8.12,8c3.83,3.76,7.64,7.55,11.52,11.27a2.17,2.17,0,0,1,.63,2.28,6.63,6.63,0,0,1-2.45,3.78,8.14,8.14,0,0,1-6.42,2,5.45,5.45,0,0,1-4.6-4.08C6.49,43.52,4.3,35.92,2.06,28.33,2,28.24,2,28.14,2,27.9Z"/><path d="M58.19,33.4c-.06.7-.1,1.4-.16,2.1Q57.51,41.43,57,47.33c-.29,3.15-.56,6.3-.85,9.45a2.46,2.46,0,0,1-2.61,2.46,12.77,12.77,0,0,1-7.4-1.88,10.5,10.5,0,0,1-3.34-2.84,2.63,2.63,0,0,1,.14-3.77l14.82-17c.11-.13.21-.27.31-.41Z"/></g></svg>